<mxfile host="app.diagrams.net" modified="2024-01-24T08:42:12.947Z" agent="Mozilla/5.0 (Windows NT 10.0; Win64; x64) AppleWebKit/537.36 (KHTML, like Gecko) Chrome/120.0.0.0 Safari/537.36" version="23.0.0" etag="A3krAIe6NF0LjmMPzthO" type="github">
  <diagram name="Halaman-1" id="6AHiwID1DyzD1UgUf2Vq">
    <mxGraphModel>
      <root>
        <mxCell id="0" />
        <mxCell id="1" parent="0" />
      </root>
    </mxGraphModel>
  </diagram>
</mxfile>
